<?xml version="1.0" standalone="no"?>
<!DOCTYPE svg PUBLIC "-//W3C//DTD SVG 20010904//EN"
 "http://www.w3.org/TR/2001/REC-SVG-20010904/DTD/svg10.dtd">
<svg version="1.0" xmlns="http://www.w3.org/2000/svg"
 width="399.000000pt" height="399.000000pt" viewBox="0 0 399.000000 399.000000"
 preserveAspectRatio="xMidYMid meet">
<metadata>
Created by potrace 1.11, written by Peter Selinger 2001-2013
</metadata>
<g transform="translate(0.000000,399.000000) scale(0.100000,-0.100000)"
fill="#000000" stroke="none">
<path d="M1055 3974 c-28 -21 -114 -64 -129 -64 -7 0 -17 -5 -23 -11 -16 -16
5 -38 29 -31 12 3 18 -1 18 -14 0 -17 1 -17 14 1 13 18 13 18 12 -3 0 -12 -17
-39 -37 -60 -29 -32 -35 -46 -36 -85 -1 -34 3 -47 13 -47 8 0 14 -4 14 -9 0
-5 9 -13 20 -16 16 -5 18 -10 10 -25 -7 -13 -6 -19 5 -24 8 -3 15 -14 15 -25
0 -13 -5 -18 -13 -15 -15 5 -37 -35 -37 -66 0 -11 -6 -20 -14 -20 -8 0 -18 -5
-22 -12 -4 -7 -3 -8 4 -4 8 5 12 -1 12 -14 0 -17 -4 -20 -20 -15 -14 5 -20 2
-20 -10 0 -8 -6 -18 -14 -21 -7 -3 -22 -21 -32 -40 -19 -35 -19 -36 0 -50 18
-13 15 -19 -7 -15 -5 1 -6 -2 -4 -6 3 -5 31 -8 64 -8 48 0 58 3 55 16 -3 22
27 33 34 14 9 -23 42 -18 46 6 2 16 18 27 58 42 37 14 55 16 58 8 2 -6 11 -11
20 -11 14 0 14 2 3 9 -11 7 -9 10 8 16 11 3 21 13 21 21 0 17 16 19 26 3 5 -8
10 -6 16 5 5 9 19 16 32 16 13 0 29 7 36 15 7 8 19 15 27 15 9 0 13 6 10 14
-4 9 4 16 23 20 16 3 39 15 50 26 11 11 29 20 40 20 10 0 34 13 52 29 25 21
40 27 63 24 23 -3 38 3 63 26 33 31 82 42 82 19 0 -9 3 -9 9 1 5 8 24 15 42
16 18 2 38 10 44 19 7 9 27 16 46 16 19 0 62 6 97 14 34 7 65 10 68 7 13 -13
51 -4 70 17 18 19 23 20 28 7 7 -20 46 -20 46 0 0 20 17 19 28 -1 8 -14 10
-14 26 1 13 14 20 15 31 5 8 -7 13 -16 10 -20 -3 -5 -1 -11 4 -14 5 -3 11 3
14 13 4 18 72 39 85 27 3 -3 -9 -9 -26 -12 -40 -8 -42 -24 -2 -24 16 0 29 -3
29 -7 -6 -39 2 -53 32 -53 18 0 28 4 24 10 -4 6 -11 8 -16 5 -5 -4 -9 1 -9 9
0 12 5 14 25 6 19 -7 23 -6 18 5 -3 8 0 15 6 15 6 0 11 -9 11 -20 0 -11 5 -20
11 -20 6 0 9 9 6 20 -3 11 -1 20 4 20 5 0 9 -8 9 -18 0 -10 7 -27 15 -38 8
-12 11 -24 8 -28 -3 -3 -1 -6 5 -6 5 0 13 6 16 13 3 6 3 2 0 -10 -7 -28 5 -51
16 -32 5 7 7 -4 5 -24 -2 -21 0 -35 6 -32 5 4 9 18 9 33 0 20 3 23 10 12 5 -8
5 -20 1 -28 -4 -8 -5 -33 0 -55 4 -25 3 -44 -2 -48 -6 -4 -5 -16 2 -33 10 -21
10 -29 0 -39 -10 -9 -11 -8 -6 8 3 11 -1 7 -10 -9 -25 -42 -28 -102 -8 -134
23 -36 55 -68 67 -64 4 2 6 -3 3 -11 -4 -10 2 -13 19 -11 14 1 22 -2 18 -8 -4
-6 1 -8 15 -3 24 7 25 6 11 -29 -5 -14 -15 -26 -22 -25 -10 0 -10 2 0 6 10 4
10 8 1 19 -6 8 -16 14 -21 14 -6 0 -5 -7 2 -15 9 -10 9 -15 1 -15 -10 0 4 -20
57 -77 12 -13 22 -31 22 -39 0 -7 4 -14 8 -14 5 0 15 -12 22 -27 8 -18 14 -23
17 -15 3 8 0 19 -6 25 -6 6 -11 18 -11 27 1 12 4 11 15 -4 14 -19 15 -18 16
15 l1 34 24 -50 c24 -50 24 -50 24 -17 0 20 4 31 10 27 6 -4 8 -10 6 -14 -3
-4 0 -13 5 -21 6 -10 7 5 3 41 -4 37 -3 59 5 63 7 5 11 -6 11 -33 0 -22 6 -46
13 -53 8 -7 17 -33 21 -58 4 -24 11 -50 17 -56 6 -7 12 -41 14 -76 4 -74 21
-205 32 -245 4 -15 6 -35 5 -44 -2 -9 3 -16 10 -17 23 -2 43 -8 66 -20 12 -7
22 -11 22 -8 0 3 15 0 33 -6 17 -5 42 -10 55 -9 17 1 22 -4 20 -17 -1 -9 1
-23 6 -30 5 -9 1 -18 -10 -27 -11 -8 -16 -15 -12 -15 4 0 4 -10 -1 -23 -6 -15
-4 -26 5 -35 16 -15 19 -62 4 -62 -5 0 -10 11 -10 24 0 26 -15 43 -24 28 -3
-5 -1 -24 4 -43 7 -24 6 -35 -3 -41 -8 -5 -7 -8 6 -8 11 0 17 -8 16 -22 0 -22
-1 -22 -9 -3 -6 14 -8 3 -8 -37 0 -47 3 -55 14 -44 7 8 10 23 7 36 -5 17 -3
21 7 15 10 -6 11 -2 6 19 -5 21 -2 32 14 46 11 9 23 32 27 50 5 28 4 32 -10
27 -11 -4 -17 -1 -17 7 0 8 -6 16 -12 19 -7 2 -10 8 -5 12 4 5 13 0 21 -10 9
-13 15 -15 20 -6 4 6 2 18 -4 26 -10 12 -10 22 0 45 9 22 10 34 1 44 -8 9 -8
22 -1 43 6 17 10 34 9 39 -5 18 24 93 38 98 9 4 11 1 7 -5 -4 -7 -1 -10 7 -7
8 3 17 24 21 48 4 24 14 58 22 75 8 16 17 42 21 56 6 26 12 32 74 72 19 12 46
30 60 39 48 33 76 41 133 42 l57 0 -4 51 c-3 27 -9 95 -15 150 -6 55 -13 147
-15 205 -14 324 -12 304 -46 385 -17 43 -32 85 -33 94 -2 31 -84 166 -121 199
l-37 32 -1151 0 c-1018 -1 -1154 -2 -1172 -16z m405 -228 c0 -2 2 -10 5 -18 4
-9 -5 -14 -25 -15 -32 -2 -38 5 -18 25 11 11 38 17 38 8z m-64 -72 c-3 -21
-36 -41 -36 -21 0 14 19 37 31 37 4 0 6 -7 5 -16z m1014 6 c0 -5 -4 -10 -9
-10 -6 0 -13 5 -16 10 -3 6 1 10 9 10 9 0 16 -4 16 -10z m-1123 -68 c-20 -22
-22 -39 -4 -45 6 -2 8 -8 4 -13 -4 -5 -12 -2 -18 6 -8 13 -10 13 -18 0 -6 -8
-13 -11 -18 -7 -4 5 -2 11 4 15 7 4 16 20 22 35 6 15 18 27 27 27 16 0 16 -1
1 -18z m87 10 c2 -4 -1 -18 -8 -31 -9 -15 -16 -20 -20 -12 -4 6 -2 11 4 11 7
0 9 8 5 20 -6 19 8 29 19 12z m226 -22 c-8 -6 -22 -10 -30 -10 -8 0 -4 6 10
13 27 15 44 12 20 -3z m-290 -20 c0 -5 -2 -10 -4 -10 -3 0 -8 5 -11 10 -3 6
-1 10 4 10 6 0 11 -4 11 -10z m-80 -44 c0 -3 -4 -8 -10 -11 -5 -3 -10 -1 -10
4 0 6 5 11 10 11 6 0 10 -2 10 -4z m25 -17 c-5 -16 -3 -20 11 -17 9 2 19 -3
21 -9 3 -9 -6 -13 -26 -13 -33 0 -37 9 -21 41 14 25 23 24 15 -2z m-75 -39 c0
-11 9 -29 21 -41 11 -11 17 -24 13 -27 -3 -4 -9 -1 -11 6 -7 19 -40 14 -46 -8
-6 -22 -27 -27 -27 -7 0 8 7 28 16 45 8 18 13 36 9 42 -3 5 1 10 9 10 9 0 16
-9 16 -20z m-63 -6 c-3 -3 -12 -4 -19 -1 -8 3 -5 6 6 6 11 1 17 -2 13 -5z
m153 -28 c0 -8 -4 -18 -10 -21 -5 -3 -10 3 -10 14 0 12 5 21 10 21 6 0 10 -6
10 -14z m1344 -103 c-8 -45 -12 -52 -23 -34 -9 14 8 71 22 71 4 0 5 -17 1 -37z
m56 17 c0 -11 -4 -20 -9 -20 -5 0 -7 9 -4 20 3 11 7 20 9 20 2 0 4 -9 4 -20z
m57 -72 c-3 -8 -6 -5 -6 6 -1 11 2 17 5 13 3 -3 4 -12 1 -19z m23 -147 c0 -3
-4 -1 -9 5 -6 5 -13 29 -16 54 l-5 45 14 -50 c8 -27 15 -52 16 -54z m-50 -61
c0 -5 -4 -10 -10 -10 -5 0 -10 5 -10 10 0 6 5 10 10 10 6 0 10 -4 10 -10z"/>
<path d="M1815 3650 c3 -5 8 -10 11 -10 2 0 4 5 4 10 0 6 -5 10 -11 10 -5 0
-7 -4 -4 -10z"/>
<path d="M2511 3464 c0 -11 3 -14 6 -6 3 7 2 16 -1 19 -3 4 -6 -2 -5 -13z"/>
<path d="M1065 3290 c3 -5 8 -10 11 -10 2 0 4 5 4 10 0 6 -5 10 -11 10 -5 0
-7 -4 -4 -10z"/>
<path d="M808 3201 c-16 -10 -25 -21 -20 -26 4 -4 -1 -5 -10 -2 -15 5 -18 1
-17 -26 1 -18 3 -24 6 -14 2 9 11 17 19 17 8 0 14 7 14 16 0 8 5 12 10 9 6 -4
8 -11 5 -16 -4 -5 -1 -9 5 -9 6 0 13 7 16 15 4 10 21 15 53 15 26 0 51 4 57
10 5 5 24 6 49 0 23 -5 44 -5 50 0 6 5 16 5 23 1 15 -9 70 -2 78 10 3 5 -5 8
-18 8 -13 -1 -84 1 -158 4 -117 5 -139 3 -162 -12z"/>
<path d="M995 3100 c-8 -13 15 -13 35 0 12 8 11 10 -7 10 -12 0 -25 -4 -28
-10z"/>
<path d="M948 3093 c6 -2 18 -2 25 0 6 3 1 5 -13 5 -14 0 -19 -2 -12 -5z"/>
<path d="M770 2870 c0 -19 11 -26 23 -14 8 8 -3 34 -14 34 -5 0 -9 -9 -9 -20z"/>
<path d="M2831 2864 c0 -11 3 -14 6 -6 3 7 2 16 -1 19 -3 4 -6 -2 -5 -13z"/>
<path d="M3580 2796 c0 -2 11 -6 25 -8 14 -3 25 -1 25 3 0 5 -11 9 -25 9 -14
0 -25 -2 -25 -4z"/>
<path d="M2175 2740 c4 -6 11 -8 16 -5 14 9 11 15 -7 15 -8 0 -12 -5 -9 -10z"/>
<path d="M2210 2736 c0 -8 7 -16 15 -20 28 -10 16 -34 -21 -41 -29 -5 -34 -9
-24 -18 10 -9 14 -9 17 1 6 14 103 17 103 2 0 -5 -13 -7 -32 -3 -20 4 -29 3
-25 -4 11 -17 -22 -24 -82 -17 -52 6 -57 5 -57 -14 0 -15 4 -18 16 -12 8 4 57
11 109 15 74 6 95 4 102 -6 6 -10 9 -11 9 -1 0 8 16 12 46 12 39 0 44 2 35 14
-15 18 -109 58 -124 53 -6 -2 -24 9 -40 25 -33 31 -47 35 -47 14z m145 -66 c8
-13 -15 -13 -35 0 -12 8 -11 10 7 10 12 0 25 -4 28 -10z"/>
<path d="M1860 2723 c0 -6 -6 -11 -12 -10 -7 0 -22 -1 -33 -2 -17 -1 -18 -3
-5 -12 11 -8 7 -9 -17 -5 -25 4 -33 2 -33 -9 0 -10 -10 -15 -28 -15 -15 0 -32
-4 -37 -9 -15 -15 -128 -30 -141 -20 -8 6 -18 4 -28 -6 -9 -9 -16 -13 -16 -8
0 4 -9 -5 -20 -22 -24 -36 -27 -64 -6 -46 11 10 16 8 21 -9 3 -11 10 -18 14
-15 5 2 17 -5 27 -16 10 -11 24 -17 33 -14 9 4 61 15 116 25 55 10 120 25 145
33 25 9 65 21 90 29 30 9 45 19 44 29 -1 18 21 19 52 2 17 -10 25 -9 40 2 15
11 16 15 4 16 -8 1 -19 2 -25 4 -5 1 -17 3 -25 3 -12 2 -12 4 2 18 15 15 14
18 -3 35 -20 20 -34 25 -24 9 3 -5 1 -10 -4 -10 -6 0 -11 6 -11 13 0 7 -17 13
-46 15 -40 2 -45 0 -35 -12 8 -9 8 -16 2 -20 -5 -4 -17 4 -25 16 -9 12 -16 17
-16 11z m155 -43 c3 -6 -4 -10 -17 -10 -18 0 -20 2 -8 10 19 12 18 12 25 0z
m-210 -20 c3 -5 -1 -10 -9 -10 -8 0 -18 5 -21 10 -3 6 1 10 9 10 8 0 18 -4 21
-10z m-235 -130 c13 -8 13 -10 -2 -10 -9 0 -20 5 -23 10 -8 13 5 13 25 0z"/>
<path d="M1378 2588 c14 -14 16 -32 3 -23 -6 3 -8 -4 -6 -17 6 -30 30 -42 89
-44 l49 -2 -49 49 c-53 54 -56 56 -48 34 4 -8 1 -15 -5 -15 -7 0 -14 7 -17 15
-4 8 -11 15 -17 15 -7 0 -7 -4 1 -12z"/>
<path d="M3695 2570 c4 -19 15 -64 25 -100 15 -53 19 -59 19 -32 1 43 -18 122
-36 147 -13 18 -14 17 -8 -15z"/>
<path d="M1326 2572 c-3 -6 1 -13 10 -16 23 -9 28 -2 10 13 -8 7 -17 8 -20 3z"/>
<path d="M990 2540 c0 -5 -28 -9 -62 -9 -208 0 -206 0 -226 -67 -17 -59 -15
-123 7 -170 19 -41 41 -65 41 -45 0 21 3 26 24 41 11 8 29 13 39 12 9 -2 20 4
23 13 4 9 19 22 35 30 32 17 119 20 119 5 0 -5 1 -13 1 -17 2 -8 -40 -36 -80
-53 -13 -6 -36 -19 -51 -30 -21 -15 -30 -17 -40 -7 -9 8 -11 8 -6 0 9 -16 -4
-43 -20 -43 -12 0 -11 -5 3 -27 9 -16 27 -39 39 -53 13 -14 27 -37 33 -52 6
-16 16 -28 23 -28 10 0 10 2 -1 9 -7 5 -10 14 -6 21 5 8 12 5 23 -11 11 -16
12 -24 4 -27 -26 -8 -10 -21 36 -27 26 -4 55 -9 64 -11 17 -5 45 32 34 43 -3
3 -27 7 -53 8 -70 3 -69 3 -82 31 -13 30 -5 118 13 133 12 9 88 32 93 28 1 -2
-3 -19 -9 -39 -9 -31 -8 -41 8 -68 10 -17 32 -39 47 -48 26 -16 30 -16 58 1
17 9 39 17 49 17 14 0 20 11 25 51 7 50 7 50 28 32 20 -18 20 -18 14 30 -9 63
-34 114 -66 135 -14 9 -35 25 -45 34 -11 10 -26 18 -33 18 -7 0 -13 11 -13 26
0 14 -4 23 -10 19 -6 -4 -7 -11 -4 -17 4 -7 2 -8 -5 -4 -6 4 -9 12 -5 17 8 13
-15 70 -37 92 -20 19 -29 22 -29 7z m20 -270 c0 -5 -12 -10 -27 -9 -25 0 -26
1 -8 9 27 12 35 12 35 0z m150 -18 c8 -9 11 -14 6 -9 -6 4 -17 7 -26 7 -9 0
-25 7 -36 16 -18 15 -18 15 11 9 17 -3 37 -14 45 -23z m-40 -78 c0 -8 -5 -12
-10 -9 -6 4 -8 11 -5 16 9 14 15 11 15 -7z"/>
<path d="M1040 2536 c0 -14 29 -31 38 -21 6 6 -18 35 -29 35 -5 0 -9 -6 -9
-14z"/>
<path d="M1336 2526 c6 -15 44 -29 44 -17 0 11 -23 31 -37 31 -7 0 -10 -6 -7
-14z"/>
<path d="M1070 2490 c0 -5 9 -10 21 -10 11 0 17 5 14 10 -3 6 -13 10 -21 10
-8 0 -14 -4 -14 -10z"/>
<path d="M1784 2490 c-33 -13 -99 -95 -112 -138 -15 -50 -16 -74 -2 -52 5 8
10 11 10 5 0 -5 5 -3 10 5 6 10 8 4 4 -21 -8 -47 13 -70 60 -62 26 4 36 1 48
-16 l15 -21 19 21 c18 20 18 20 -10 13 -23 -5 -28 -4 -24 7 4 9 -4 19 -18 26
-18 8 -24 8 -28 -3 -6 -16 -15 -17 -35 -5 -10 7 -11 13 -2 30 7 12 17 18 23
15 7 -5 9 0 6 12 -10 38 64 102 145 125 29 8 29 7 23 -22 -7 -39 15 -93 47
-114 20 -12 37 -15 72 -10 50 8 64 24 75 85 7 41 25 42 75 4 39 -30 59 -31 52
-4 -4 17 0 20 26 20 l32 0 -33 17 c-21 10 -31 21 -28 30 7 18 -40 38 -109 48
-45 6 -48 6 -31 -7 17 -14 12 -15 -50 -11 -81 5 -98 9 -89 23 8 12 -140 13
-171 0z m230 -121 c-3 -5 -10 -7 -15 -3 -5 3 -7 10 -3 15 3 5 10 7 15 3 5 -3
7 -10 3 -15z m-24 -60 c0 -5 -4 -9 -10 -9 -5 0 -10 7 -10 16 0 8 5 12 10 9 6
-3 10 -10 10 -16z"/>
<path d="M3445 2490 c3 -5 15 -10 26 -10 11 0 17 5 14 10 -3 6 -15 10 -26 10
-11 0 -17 -4 -14 -10z"/>
<path d="M1330 2480 c8 -5 24 -9 35 -9 l20 0 -20 9 c-11 5 -27 9 -35 9 -13 1
-13 0 0 -9z"/>
<path d="M3811 2454 c0 -11 3 -14 6 -6 3 7 2 16 -1 19 -3 4 -6 -2 -5 -13z"/>
<path d="M1130 2420 c0 -5 5 -10 10 -10 6 0 10 5 10 10 0 6 -4 10 -10 10 -5 0
-10 -4 -10 -10z"/>
<path d="M2936 2351 c-4 -7 -5 -15 -2 -18 9 -9 19 4 14 18 -4 11 -6 11 -12 0z"/>
<path d="M3075 2310 c3 -5 11 -10 16 -10 6 0 7 5 4 10 -3 6 -11 10 -16 10 -6
0 -7 -4 -4 -10z"/>
<path d="M3390 2195 c-7 -9 -8 -15 -2 -15 5 0 12 7 16 15 3 8 4 15 2 15 -2 0
-9 -7 -16 -15z"/>
<path d="M3060 2151 c0 -11 5 -23 10 -26 6 -3 10 3 10 14 0 11 -4 23 -10 26
-5 3 -10 -3 -10 -14z"/>
<path d="M3194 2158 c-4 -5 -3 -29 1 -53 4 -31 12 -46 26 -50 22 -7 25 -23 5
-31 -8 -3 -17 -28 -21 -60 -3 -30 -11 -54 -16 -54 -5 0 -9 -7 -9 -15 0 -8 -3
-15 -7 -15 -5 0 -16 -12 -26 -25 -13 -18 -15 -30 -9 -42 11 -18 -13 -52 -26
-38 -4 4 -1 10 6 12 17 6 15 30 -4 37 -8 3 -12 2 -9 -4 11 -18 -6 -51 -31 -60
-13 -5 -24 -14 -24 -19 0 -13 41 -4 52 11 6 8 7 4 3 -11 -6 -19 -4 -23 8 -18
12 4 14 2 10 -10 -5 -11 -3 -14 6 -8 10 6 11 3 2 -14 -12 -22 -34 -30 -26 -8
6 16 -12 44 -22 34 -4 -5 -1 -12 6 -16 14 -9 7 -31 -10 -31 -6 0 -7 4 -4 10 3
5 1 18 -4 27 -9 15 -10 13 -11 -14 0 -23 -5 -33 -15 -33 -19 0 -19 0 1 -38 8
-18 20 -32 25 -32 6 0 7 -5 3 -12 -14 -23 -9 -70 8 -79 25 -14 22 -42 -7 -69
l-25 -23 0 27 c0 16 4 25 10 21 6 -3 10 -2 10 4 0 26 -21 17 -54 -21 -20 -23
-39 -38 -43 -35 -4 4 -1 13 5 19 16 16 15 25 -3 25 -18 0 -17 1 -19 -61 -1
-31 3 -50 11 -53 7 -3 13 -11 13 -19 0 -28 17 -13 30 26 7 21 17 37 22 34 4
-3 6 -9 3 -14 -3 -4 2 -10 10 -14 8 -3 15 -12 15 -21 0 -13 4 -14 23 -4 18 9
20 9 10 -2 -20 -20 -17 -50 4 -42 15 6 16 5 3 -9 -11 -11 -19 -13 -27 -6 -10
8 -13 6 -13 -6 0 -10 -4 -15 -8 -12 -17 10 -35 -42 -29 -83 3 -24 1 -39 -4
-35 -5 3 -9 20 -9 39 0 28 -4 33 -20 32 -23 -1 -23 -2 -10 -28 8 -15 8 -19 -2
-17 -8 2 -14 -10 -16 -31 -3 -24 -6 -30 -12 -21 -6 10 -11 4 -18 -21 -6 -19
-11 -26 -11 -16 -1 11 -6 15 -13 11 -8 -5 -9 0 -5 15 4 19 3 20 -9 10 -10 -8
-13 -22 -9 -43 5 -23 4 -27 -4 -16 -8 11 -11 11 -11 2 0 -7 -9 -22 -19 -33
l-19 -21 -7 21 c-3 12 -13 21 -21 21 -8 0 -14 5 -14 12 0 6 -3 9 -6 5 -3 -3 4
-19 16 -35 12 -17 19 -35 16 -41 -4 -6 -3 -11 3 -11 8 0 8 -15 1 -40 -2 -8
-23 43 -25 62 -1 10 -4 19 -6 21 -2 2 -16 11 -31 20 -25 16 -26 16 -33 -10 -3
-15 -1 -30 6 -37 8 -8 10 -5 4 12 -7 25 12 31 33 10 17 -17 15 -41 -3 -34 -20
7 -46 -4 -38 -17 3 -6 1 -7 -5 -3 -7 4 -12 16 -12 27 0 10 -5 19 -11 19 -5 0
-7 5 -4 10 3 6 1 10 -5 10 -19 0 -22 -28 -7 -59 14 -27 13 -29 -3 -28 -10 1
-15 7 -13 17 3 10 -3 16 -16 17 -38 3 -24 -49 17 -61 12 -4 20 -11 17 -16 -3
-5 -1 -11 5 -15 5 -3 10 -11 10 -17 0 -7 -6 -6 -15 2 -8 7 -15 19 -15 27 0 8
-4 12 -10 8 -5 -3 -25 18 -45 47 -19 29 -35 47 -35 40 0 -6 -10 -12 -22 -13
-22 0 -22 -1 -3 -8 12 -5 23 -4 27 2 3 6 18 -13 32 -41 31 -61 34 -81 6 -35
-12 20 -25 31 -34 27 -20 -8 -26 -40 -10 -61 17 -23 18 -37 2 -27 -15 9 -48
13 -48 5 0 -2 9 -14 20 -26 l20 -22 -22 3 c-13 1 -26 3 -30 3 -4 1 -5 9 -2 19
5 14 4 14 -4 3 -7 -10 -7 -21 0 -34 5 -10 7 -21 4 -24 -3 -4 -1 -12 5 -20 9
-10 8 -13 -1 -13 -10 0 -9 -4 1 -17 7 -10 1 -7 -13 6 -15 13 -25 28 -21 34 3
6 1 7 -5 3 -6 -3 -15 2 -21 11 -5 10 -12 15 -16 11 -4 -3 3 -16 14 -27 12 -12
21 -33 21 -47 0 -14 4 -23 9 -19 5 3 13 0 17 -6 4 -7 3 -9 -4 -5 -6 3 -13 2
-17 -4 -7 -12 -93 -6 -106 7 -6 6 -3 9 10 8 12 -1 24 -4 27 -8 15 -14 34 -6
34 14 0 13 4 18 13 13 6 -4 1 5 -12 19 -14 15 -25 27 -26 27 0 0 -1 -9 -2 -20
-1 -11 2 -18 6 -16 4 3 8 -1 8 -8 0 -7 -6 -13 -14 -13 -7 0 -13 3 -13 7 0 8
-47 7 -56 -2 -4 -4 -2 -14 4 -21 7 -8 8 -18 4 -22 -4 -5 -1 -5 6 -1 19 11 26
-21 8 -39 -17 -18 -21 -30 -7 -21 15 10 41 -5 41 -22 0 -13 -3 -12 -15 4 -14
19 -15 19 -21 -3 -3 -13 -10 -20 -15 -17 -5 3 -7 10 -4 15 3 5 -1 6 -9 3 -8
-3 -12 -12 -10 -19 8 -20 36 -28 46 -13 5 9 8 9 8 1 0 -6 6 -13 13 -16 6 -2 4
-3 -5 -2 -10 2 -18 -2 -18 -7 0 -6 -7 -5 -16 3 -13 10 -17 10 -25 -2 -5 -8 -8
-24 -6 -37 2 -12 1 -22 -4 -22 -4 0 -9 21 -11 48 l-3 47 -14 -28 c-11 -20 -17
-24 -23 -15 -9 12 -7 0 8 -54 6 -19 -12 -24 -32 -10 -10 6 -25 41 -29 67 -1 6
-3 17 -4 25 -2 11 -5 9 -10 -5 -5 -11 -4 -25 1 -32 7 -9 5 -15 -7 -19 -19 -8
-38 13 -30 34 2 6 -1 12 -6 12 -6 0 -9 -9 -6 -20 3 -11 1 -20 -4 -20 -16 0 -5
-34 16 -52 17 -15 18 -17 3 -18 -9 0 -20 5 -23 10 -4 6 -11 8 -16 5 -5 -4 -9
-1 -9 4 0 6 -5 11 -11 11 -6 0 -7 -5 -2 -12 4 -7 9 -22 10 -33 2 -10 9 -23 16
-28 9 -7 9 -10 0 -14 -7 -2 -13 -12 -13 -20 0 -12 -3 -13 -13 -4 -8 6 -18 7
-22 3 -5 -4 -5 -1 -1 5 4 7 2 13 -3 13 -6 0 -11 -7 -11 -15 0 -8 -6 -12 -14
-9 -9 3 -12 12 -9 21 4 11 2 14 -5 9 -7 -4 -12 -16 -12 -27 0 -11 -4 -17 -10
-14 -5 3 -10 1 -10 -4 0 -6 -7 -11 -15 -11 -9 0 -15 10 -15 26 0 17 -4 23 -12
18 -10 -6 -10 -4 0 7 16 17 15 29 -2 29 -18 0 -24 16 -21 55 1 17 0 20 -2 7
-2 -12 -9 -22 -15 -22 -5 0 -8 -7 -4 -15 9 -25 -2 -17 -18 13 -8 15 -15 21
-16 14 0 -7 -4 -11 -10 -7 -5 3 -7 13 -4 23 5 13 4 14 -4 3 -8 -11 -11 -11
-16 0 -3 9 -5 6 -5 -6 2 -37 -2 -40 -17 -15 -13 22 -14 22 -9 3 3 -12 1 -25
-6 -29 -8 -4 -9 -3 -5 4 4 7 2 12 -3 12 -6 0 -11 8 -11 18 -1 16 -1 16 -11 -1
-5 -9 -8 -21 -5 -25 3 -5 -2 -9 -10 -9 -13 0 -15 8 -10 41 4 22 4 37 0 33 -4
-4 -13 -2 -21 5 -7 6 -16 8 -20 4 -3 -3 -1 -6 5 -6 7 0 12 -5 12 -11 0 -24
-30 14 -31 40 l-1 26 -8 -25 c-8 -25 -8 -24 -9 5 -1 20 -4 26 -10 17 -7 -11
-9 -10 -15 3 -3 9 -11 13 -17 9 -7 -4 -9 -3 -5 4 3 6 -1 17 -9 25 -19 20 -19
37 0 37 9 0 12 6 8 17 -4 11 -8 12 -11 5 -2 -7 -16 -12 -30 -12 -19 0 -23 3
-13 9 11 7 9 10 -7 15 -11 4 -23 18 -26 31 -3 13 -15 29 -25 35 -31 16 -16 48
24 48 18 0 42 5 54 11 11 7 21 8 21 4 0 -4 5 -2 12 5 18 18 43 15 63 -8 l19
-21 13 23 c11 21 12 19 8 -20 -2 -23 0 -40 5 -37 5 3 7 12 4 19 -3 8 -1 17 5
21 6 3 11 17 11 31 0 20 5 24 29 24 33 0 44 10 32 28 -6 10 -29 9 -106 -3 -54
-9 -112 -13 -129 -10 -39 8 -118 45 -128 59 -4 6 -8 7 -8 2 0 -6 -7 -1 -15 10
-8 10 -15 41 -15 68 0 42 2 47 18 41 24 -10 121 -12 125 -2 1 4 27 12 57 16
30 4 82 20 115 35 103 47 156 61 327 83 52 7 56 9 43 26 -12 16 -18 17 -57 6
-23 -6 -89 -11 -145 -10 -94 1 -103 0 -103 -17 0 -14 -15 -23 -62 -37 -35 -10
-67 -22 -73 -26 -15 -11 -58 -13 -78 -4 -10 4 -34 5 -53 2 -25 -4 -46 0 -71
14 -28 16 -34 17 -30 5 4 -10 1 -13 -9 -9 -8 3 -13 11 -10 18 7 19 -41 42 -56
27 -7 -7 -20 -12 -31 -12 -10 0 -16 -4 -12 -9 3 -5 0 -13 -6 -17 -14 -8 -29
14 -29 43 0 16 9 25 35 34 19 7 35 19 35 26 0 7 7 13 15 13 16 0 17 1 19 43 1
16 -3 31 -10 35 -15 9 -24 62 -10 62 17 0 -27 26 -56 33 -14 4 -34 10 -44 14
-11 4 -15 3 -10 -5 5 -8 -1 -8 -23 -1 -31 11 -90 70 -92 92 -1 7 -4 1 -8 -13
-10 -32 8 -68 56 -115 31 -31 42 -35 87 -35 l51 -1 -30 -14 c-16 -7 -24 -14
-17 -14 6 -1 12 -6 12 -12 0 -5 -4 -7 -10 -4 -5 3 -10 1 -10 -4 0 -6 -6 -11
-14 -11 -8 0 -18 -4 -21 -10 -8 -12 9 -43 21 -38 5 1 10 -9 12 -24 2 -16 -1
-28 -7 -28 -6 0 -11 -6 -11 -14 0 -8 -7 -16 -15 -20 -9 -3 -15 0 -15 10 0 8 7
17 15 20 8 4 15 14 15 24 0 13 -5 17 -20 13 -16 -4 -19 -2 -14 12 5 13 3 16
-7 13 -8 -3 -14 -18 -14 -36 0 -18 -3 -32 -6 -32 -4 0 -5 -9 -2 -20 3 -11 10
-17 15 -14 6 4 5 -3 -1 -15 -12 -22 -7 -41 10 -41 5 0 9 7 9 15 0 8 5 15 10
15 6 0 10 -9 10 -21 0 -11 -4 -17 -10 -14 -5 3 -10 2 -10 -4 0 -5 -3 -17 -7
-27 -5 -13 -3 -15 7 -9 9 5 11 4 6 -3 -9 -15 6 -43 57 -110 39 -52 40 -52 61
-35 21 18 21 18 2 -4 -18 -22 -18 -23 18 -71 20 -28 36 -55 36 -61 0 -6 -52
-64 -116 -128 -64 -65 -144 -156 -179 -203 -59 -80 -98 -128 -179 -225 -27
-33 -86 -142 -86 -160 0 -3 171 -5 380 -5 l380 0 20 44 c11 25 20 47 20 50 0
2 9 25 20 50 l19 46 33 -20 c29 -17 94 -50 163 -80 11 -5 54 -12 95 -15 41 -4
76 -8 78 -9 1 -2 -9 -18 -24 -35 l-26 -31 248 2 c200 2 248 6 252 17 3 8 0 11
-5 8 -23 -14 -183 61 -183 86 0 12 -26 37 -39 37 -6 0 -11 5 -11 10 0 6 8 10
17 10 13 0 14 3 6 11 -15 15 85 82 156 106 25 8 49 20 53 26 5 8 9 6 13 -5 7
-17 19 -13 77 25 21 15 31 16 48 7 19 -10 31 -8 55 12 6 5 19 15 30 23 l20 15
-20 -6 c-19 -5 -19 -5 -2 6 13 8 22 9 29 2 14 -14 38 -4 32 13 -6 15 12 30 20
17 3 -5 -2 -19 -11 -32 -32 -45 -65 -114 -56 -117 5 -2 49 -28 99 -58 250
-152 377 -215 435 -215 21 0 45 45 80 154 10 32 30 84 43 115 139 328 146 350
100 351 -6 0 -19 9 -29 21 l-19 20 47 -20 c25 -11 49 -16 52 -11 3 4 -10 13
-29 20 -37 12 -60 42 -25 33 11 -3 22 -9 25 -14 3 -5 15 -9 28 -9 19 0 32 19
80 118 32 64 69 137 83 162 14 25 37 64 50 88 14 24 27 42 29 39 7 -6 -15 -51
-64 -135 -62 -107 -144 -273 -138 -280 3 -3 8 -3 10 -1 4 3 53 97 110 207 10
19 19 32 22 30 2 -3 -23 -58 -56 -124 -58 -116 -68 -140 -52 -131 4 3 16 1 27
-4 16 -7 13 -8 -13 -6 -32 4 -35 1 -57 -47 -59 -131 -67 -150 -68 -167 -1 -11
-5 -19 -9 -19 -4 0 -8 -6 -8 -14 0 -8 -31 -93 -70 -190 -38 -96 -70 -178 -70
-181 0 -3 60 -5 133 -5 l132 0 15 33 c19 40 33 41 40 2 l5 -30 103 -3 102 -3
0 149 c0 122 -3 152 -15 162 -19 16 -32 5 -17 -13 14 -17 6 -28 -15 -20 -8 3
-19 0 -23 -8 -5 -7 -12 -10 -17 -6 -4 5 -1 12 7 17 8 5 11 12 7 17 -5 4 -17
-3 -29 -17 -18 -23 -19 -18 -3 23 3 7 -14 22 -42 37 -26 14 -49 31 -51 38 -5
15 20 7 70 -25 42 -26 48 -27 48 -13 0 5 -17 18 -38 29 -38 19 -73 51 -56 51
5 0 27 -11 49 -25 22 -13 45 -25 52 -25 6 0 21 20 33 45 12 25 26 48 31 51 6
3 9 111 8 266 -1 232 -2 258 -15 239 -9 -12 -20 -21 -25 -21 -5 0 2 17 16 37
22 33 25 48 25 125 0 87 -5 118 -20 118 -5 0 -11 -13 -15 -30 -4 -16 -11 -33
-17 -36 -10 -7 -7 21 8 59 4 10 -6 18 -33 26 l-38 11 43 -4 c38 -4 42 -2 30
11 -11 14 -10 16 15 11 l27 -5 0 318 0 317 -60 62 c-32 35 -64 78 -70 96 -13
37 -30 43 -51 17 -25 -30 -174 -150 -208 -167 -18 -10 -59 -20 -90 -23 -66 -7
-91 -25 -91 -67 -1 -29 -1 -30 -15 -12 -15 19 -15 19 -15 -5 0 -13 -6 -32 -13
-41 -12 -15 -14 -15 -25 2 -8 14 -9 27 -2 45 13 35 13 148 -1 162 -8 8 -8 17
1 33 9 16 9 25 0 35 -6 8 -10 24 -9 37 6 57 -27 109 -47 76z m56 -308 c0 -11
-4 -20 -10 -20 -5 0 -10 9 -10 20 0 11 5 20 10 20 6 0 10 -9 10 -20z m290 -17
c1 -21 1 -53 0 -72 0 -19 5 -38 10 -41 12 -7 -3 -51 -26 -80 -10 -12 -94 -170
-94 -176 0 -1 15 -5 33 -8 39 -8 104 -52 126 -86 13 -20 8 -18 -28 12 -49 41
-99 68 -129 68 -26 0 -32 18 -36 110 -2 40 -9 76 -15 79 -15 10 -21 39 -28
133 -6 88 -10 85 97 91 30 2 63 4 72 5 14 2 18 -6 18 -35z m210 -8 c0 -8 -2
-15 -4 -15 -2 0 -6 7 -10 15 -3 8 -1 15 4 15 6 0 10 -7 10 -15z m-606 -81 c3
-8 2 -12 -4 -9 -6 3 -10 10 -10 16 0 14 7 11 14 -7z m106 -10 c0 -8 -4 -14
-10 -14 -5 0 -10 9 -10 21 0 11 5 17 10 14 6 -3 10 -13 10 -21z m-57 -49 c4
-8 2 -17 -3 -20 -6 -4 -10 3 -10 14 0 25 6 27 13 6z m-76 -67 c-3 -7 -5 -2 -5
12 0 14 2 19 5 13 2 -7 2 -19 0 -25z m34 -3 c15 10 10 -1 -6 -15 -13 -11 -15
-8 -14 16 1 17 3 22 6 11 2 -9 9 -15 14 -12z m-71 0 c0 -8 -4 -15 -10 -15 -5
0 -10 7 -10 15 0 8 5 15 10 15 6 0 10 -7 10 -15z m30 -40 c0 -5 -5 -3 -10 5
-5 8 -10 20 -10 25 0 6 5 3 10 -5 5 -8 10 -19 10 -25z m17 -27 c-3 -8 -6 -5
-6 6 -1 11 2 17 5 13 3 -3 4 -12 1 -19z m8 -47 c-3 -6 -11 -8 -17 -5 -6 4 -5
9 3 15 16 10 23 4 14 -10z m38 -11 c3 -11 2 -18 -3 -15 -4 3 -10 14 -13 25 -3
11 -2 18 3 15 4 -3 10 -14 13 -25z m-144 -76 c-14 -18 -24 -11 -15 11 3 9 11
13 16 10 8 -5 7 -11 -1 -21z m488 -17 c38 -24 80 -74 70 -84 -3 -2 -13 7 -22
21 -23 35 -106 86 -141 86 -20 0 -25 3 -15 9 18 11 58 0 108 -32z m-415 -9
c-9 -9 -12 -7 -12 12 0 19 3 21 12 12 9 -9 9 -15 0 -24z m36 -3 c-1 -19 -6
-35 -11 -35 -5 0 -7 10 -3 23 3 12 6 28 6 35 0 6 2 12 5 12 3 0 5 -16 3 -35z
m-64 -30 c-4 -8 -10 -12 -15 -9 -14 8 -10 24 6 24 9 0 12 -6 9 -15z m61 -44
c-3 -12 -10 -21 -15 -21 -4 0 -3 11 3 24 14 29 22 27 12 -3z m46 -42 c-5 -13
-10 -18 -10 -10 -1 11 -5 10 -16 -5 -8 -10 -14 -14 -14 -9 0 16 25 45 32 38 4
-3 7 0 7 7 0 7 2 11 5 8 3 -3 1 -16 -4 -29z m489 -27 c-6 -2 -19 7 -30 20 -29
35 -24 40 10 10 17 -15 26 -28 20 -30z m-2270 24 c0 -11 -19 -15 -25 -6 -3 5
1 10 9 10 9 0 16 -2 16 -4z m2255 -34 c19 -11 19 -11 -2 -12 -12 0 -27 9 -33
19 -14 27 -13 38 3 19 6 -8 21 -20 32 -26z m-2325 -32 c0 -5 -5 -10 -11 -10
-5 0 -7 5 -4 10 3 6 8 10 11 10 2 0 4 -4 4 -10z m1655 -108 c-15 -16 -16 -15
-4 12 7 15 15 23 17 16 3 -7 -3 -19 -13 -28z m-1698 -62 c0 -22 -3 -40 -8 -40
-10 0 -16 29 -11 58 7 36 19 25 19 -18z m78 -13 c11 -7 21 -19 21 -27 6 -54
20 -90 52 -132 20 -26 42 -48 49 -48 17 0 17 -18 -1 -35 -12 -12 -15 -12 -20
1 -3 8 -2 12 4 9 6 -3 10 -2 10 4 0 16 -34 18 -60 2 -19 -11 -22 -11 -12 -1
18 20 15 33 -6 28 -15 -4 -18 0 -17 26 3 43 -4 50 -28 29 -12 -9 -16 -11 -9
-3 15 17 16 44 1 34 -6 -3 -10 1 -9 12 4 33 0 44 -14 44 -14 0 -14 5 -1 48 8
25 12 26 40 9z m-62 -97 c9 -11 13 -20 7 -20 -5 0 -14 9 -20 20 -6 11 -9 20
-8 20 2 0 11 -9 21 -20z m2537 10 c0 -5 -5 -10 -11 -10 -5 0 -7 5 -4 10 3 6 8
10 11 10 2 0 4 -4 4 -10z m-704 -26 c-4 -9 -9 -15 -11 -12 -3 3 -3 13 1 22 4
9 9 15 11 12 3 -3 3 -13 -1 -22z m-531 -41 c5 -16 9 -35 10 -43 1 -8 6 -23 10
-33 6 -13 4 -16 -9 -11 -9 3 -16 16 -16 28 0 12 -5 27 -12 34 -9 9 -9 12 0 12
10 0 10 5 2 20 -6 11 -7 20 -1 20 5 0 12 -12 16 -27z m530 7 c19 -8 19 -9 -2
-9 -12 -1 -25 4 -28 9 -7 12 2 12 30 0z m83 -5 c20 -9 46 -24 57 -34 11 -10
52 -35 90 -56 79 -42 80 -43 73 -51 -3 -3 -28 9 -56 25 -27 17 -53 31 -57 31
-4 0 -28 15 -54 34 -26 19 -59 38 -74 41 -28 7 -47 25 -27 25 6 0 27 -7 48
-15z m14 -45 c22 -11 67 -39 100 -60 33 -22 63 -40 66 -40 4 0 13 -9 20 -20
10 -16 1 -13 -40 13 -129 82 -181 109 -228 116 -69 11 -77 23 -11 17 29 -3 71
-14 93 -26z m-576 -17 c-1 -21 -2 -22 -13 -6 -17 22 -16 30 1 30 8 0 13 -10
12 -24z m1174 -53 c-36 -12 -98 -12 -105 0 -4 6 19 10 62 9 49 -1 61 -3 43 -9z
m-32 -37 c-15 -2 -42 -2 -60 0 -18 2 -6 4 27 4 33 0 48 -2 33 -4z m-1208 -29
c0 -4 -6 -4 -14 -1 -7 3 -19 0 -25 -6 -8 -8 -11 -7 -11 4 0 9 3 19 6 22 7 7
44 -10 44 -19z m-149 -92 c-7 -2 -18 1 -23 6 -8 8 -4 9 13 5 13 -4 18 -8 10
-11z m1229 -4 c0 -5 -10 -6 -22 -3 -36 11 -41 22 -8 17 16 -2 30 -9 30 -14z
m-1215 -18 c3 -5 -1 -10 -9 -10 -8 0 -18 5 -21 10 -3 6 1 10 9 10 8 0 18 -4
21 -10z m-1065 -16 c0 -8 -4 -12 -10 -9 -5 3 -10 10 -10 16 0 5 5 9 10 9 6 0
10 -7 10 -16z m920 -96 c0 -16 -3 -19 -11 -11 -6 6 -8 16 -5 22 11 17 16 13
16 -11z m60 8 c0 -3 -4 -8 -10 -11 -5 -3 -10 -1 -10 4 0 6 5 11 10 11 6 0 10
-2 10 -4z m468 -16 c-7 -10 -14 -18 -15 -16 -6 6 9 36 18 36 5 0 4 -9 -3 -20z
m-618 -32 c0 -4 -4 -8 -10 -8 -5 0 -10 5 -10 10 0 6 -7 10 -15 10 -8 0 -15 4
-15 10 0 6 10 5 25 -2 14 -6 25 -15 25 -20z m-65 -36 c-8 -8 -25 10 -19 20 4
6 9 5 15 -3 4 -7 6 -15 4 -17z m-296 -25 c0 -21 -1 -21 -9 -2 -12 28 -12 37 0
30 6 -3 10 -16 9 -28z m1806 23 c3 -5 -3 -10 -14 -10 -12 0 -21 5 -21 10 0 6
6 10 14 10 8 0 18 -4 21 -10z m-1755 -10 c0 -5 -5 -10 -11 -10 -5 0 -7 5 -4
10 3 6 8 10 11 10 2 0 4 -4 4 -10z m281 -43 c-10 -9 -11 -8 -5 6 3 10 9 15 12
12 3 -3 0 -11 -7 -18z m1454 13 c-3 -5 -13 -10 -21 -10 -8 0 -14 5 -14 10 0 6
9 10 21 10 11 0 17 -4 14 -10z m-1757 -25 c-3 -3 -9 2 -12 12 -6 14 -5 15 5 6
7 -7 10 -15 7 -18z m52 10 c0 -8 -4 -15 -10 -15 -5 0 -10 7 -10 15 0 8 5 15
10 15 6 0 10 -7 10 -15z m-330 -22 c2 -2 -1 -12 -8 -21 -6 -9 -19 -32 -29 -51
-9 -19 -19 -29 -21 -23 -2 7 6 27 17 46 26 42 26 46 0 46 -11 0 -17 4 -14 10
6 10 42 5 55 -7z m10 -52 c0 -5 -9 -19 -21 -32 l-20 -24 17 33 c19 33 24 38
24 23z m-560 -26 c0 -14 -38 -41 -46 -32 -9 8 8 36 24 40 10 3 18 5 20 6 1 0
2 -6 2 -14z m2740 -3 c0 -5 -12 -19 -27 -33 l-26 -24 19 33 c17 30 34 42 34
24z m-2250 -40 c0 -5 -7 -17 -15 -28 -14 -18 -14 -17 -4 9 12 27 19 34 19 19z
m2150 -72 c-12 -17 -26 -30 -31 -30 -12 0 32 59 44 59 5 1 -1 -12 -13 -29z
m-2193 -20 c-6 -16 -15 -30 -19 -30 -5 0 -2 14 7 30 9 17 17 30 19 30 3 0 -1
-13 -7 -30z m24 -1 c-5 -13 -10 -19 -10 -12 -1 15 10 45 15 40 3 -2 0 -15 -5
-28z"/>
<path d="M1214 2115 c-17 -13 -17 -14 -2 -15 9 0 20 5 23 11 11 17 0 20 -21 4z"/>
<path d="M3165 2052 c-3 -18 -10 -32 -15 -32 -4 0 -10 -9 -13 -20 -3 -11 -1
-18 3 -15 5 3 11 -13 15 -35 10 -57 29 -52 21 5 -6 38 -5 44 8 39 20 -8 21 13
2 57 l-14 32 -7 -31z"/>
<path d="M1070 2031 c0 -14 7 -18 25 -17 32 1 32 10 0 24 -22 10 -25 9 -25 -7z"/>
<path d="M3095 2040 c-3 -5 -1 -10 4 -10 6 0 11 5 11 10 0 6 -2 10 -4 10 -3 0
-8 -4 -11 -10z"/>
<path d="M1160 2015 c0 -9 6 -12 15 -9 8 4 12 10 9 15 -8 14 -24 10 -24 -6z"/>
<path d="M3060 2006 c0 -8 5 -18 10 -21 6 -3 10 3 10 14 0 12 -4 21 -10 21 -5
0 -10 -6 -10 -14z"/>
<path d="M3105 1951 c-7 -24 -4 -40 14 -62 13 -16 16 -16 26 -2 8 11 8 25 1
49 -11 33 -11 33 -24 11 l-13 -22 6 23 c8 27 -1 30 -10 3z"/>
<path d="M3077 1933 c-4 -3 -7 -11 -7 -17 0 -6 5 -5 12 2 6 6 9 14 7 17 -3 3
-9 2 -12 -2z"/>
<path d="M111 1871 c-16 -29 -14 -91 3 -91 24 0 36 25 29 63 -7 45 -18 55 -32
28z"/>
<path d="M3065 1880 c-3 -5 -1 -10 4 -10 6 0 11 5 11 10 0 6 -2 10 -4 10 -3 0
-8 -4 -11 -10z"/>
<path d="M3102 1860 c0 -14 2 -19 5 -12 2 6 2 18 0 25 -3 6 -5 1 -5 -13z"/>
<path d="M2960 1851 c0 -12 5 -21 10 -21 6 0 10 6 10 14 0 8 -4 18 -10 21 -5
3 -10 -3 -10 -14z"/>
<path d="M3030 1850 c0 -5 5 -10 10 -10 6 0 10 5 10 10 0 6 -4 10 -10 10 -5 0
-10 -4 -10 -10z"/>
<path d="M3071 1834 c0 -11 3 -14 6 -6 3 7 2 16 -1 19 -3 4 -6 -2 -5 -13z"/>
<path d="M3020 1730 c0 -5 5 -10 10 -10 6 0 10 5 10 10 0 6 -4 10 -10 10 -5 0
-10 -4 -10 -10z"/>
<path d="M3040 1548 c0 -17 -7 -28 -17 -32 -11 -3 -8 -4 7 -3 27 2 39 32 21
50 -8 8 -11 4 -11 -15z"/>
<path d="M1515 1518 c-35 -12 -117 -87 -109 -100 3 -5 14 2 25 16 11 14 35 30
54 37 19 7 32 16 29 20 -3 5 34 7 81 6 47 -1 85 -1 85 0 0 2 -16 10 -36 18
-41 17 -85 18 -129 3z"/>
<path d="M2823 1388 c-30 -38 -15 -96 20 -82 19 7 19 45 0 79 -8 13 -11 14
-20 3z"/>
<path d="M3025 1320 c9 -30 13 -35 21 -27 3 3 -2 16 -11 29 l-17 23 7 -25z"/>
<path d="M2980 1278 c0 -9 5 -20 10 -23 13 -8 13 5 0 25 -8 13 -10 13 -10 -2z"/>
<path d="M1090 1263 c14 -22 30 -22 30 -1 0 6 -3 8 -7 5 -3 -4 -13 -1 -21 6
-13 11 -14 9 -2 -10z"/>
<path d="M3870 1250 c0 -5 5 -10 10 -10 6 0 10 5 10 10 0 6 -4 10 -10 10 -5 0
-10 -4 -10 -10z"/>
<path d="M2937 1222 c1 -8 3 -20 3 -28 0 -9 5 -12 10 -9 6 3 10 15 10 26 0 11
-4 18 -9 15 -5 -4 -11 -3 -14 1 -2 5 -2 2 0 -5z"/>
<path d="M1153 1151 c12 -22 23 -38 25 -36 5 5 -26 63 -37 69 -5 4 0 -12 12
-33z"/>
<path d="M2916 1132 c-2 -4 -1 -14 5 -22 7 -12 9 -10 9 8 0 23 -5 28 -14 14z"/>
<path d="M2690 1061 c0 -6 4 -13 10 -16 6 -3 7 1 4 9 -7 18 -14 21 -14 7z"/>
<path d="M2630 1001 c0 -5 5 -13 10 -16 6 -3 10 -2 10 4 0 5 -4 13 -10 16 -5
3 -10 2 -10 -4z"/>
<path d="M2522 873 c11 -18 23 -32 26 -29 3 3 -1 12 -7 20 -7 8 -10 19 -7 24
3 6 -3 12 -13 15 -18 4 -18 3 1 -30z"/>
<path d="M1043 853 c-18 -7 -16 -23 2 -23 8 0 15 7 15 15 0 8 -1 15 -2 14 -2
0 -9 -3 -15 -6z"/>
<path d="M1710 839 c0 -5 5 -7 10 -4 6 3 10 8 10 11 0 2 -4 4 -10 4 -5 0 -10
-5 -10 -11z"/>
<path d="M2367 803 c20 -15 37 -17 29 -4 -4 5 0 11 6 14 7 2 -2 4 -20 3 -28
-1 -30 -3 -15 -13z"/>
<path d="M2480 789 c0 -8 7 -24 15 -35 18 -24 19 -7 0 26 -9 16 -14 19 -15 9z"/>
<path d="M2303 645 c0 -8 4 -15 9 -15 4 0 8 4 8 9 0 6 -4 12 -8 15 -5 3 -9 -1
-9 -9z"/>
<path d="M2280 600 c6 -11 13 -20 16 -20 2 0 0 9 -6 20 -6 11 -13 20 -16 20
-2 0 0 -9 6 -20z"/>
<path d="M3534 544 c-44 -101 -51 -116 -97 -239 -26 -66 -62 -160 -82 -209
-39 -100 -38 -96 -27 -96 11 0 39 63 107 245 63 167 101 264 123 313 8 18 12
35 8 39 -3 3 -17 -21 -32 -53z"/>
<path d="M2060 476 c0 -2 7 -6 15 -10 8 -3 15 -1 15 4 0 6 -7 10 -15 10 -8 0
-15 -2 -15 -4z"/>
<path d="M1910 450 c13 -23 20 -26 20 -6 0 8 -7 16 -15 20 -13 4 -14 2 -5 -14z"/>
<path d="M2122 458 c2 -6 10 -14 16 -16 7 -2 10 2 6 12 -7 18 -28 22 -22 4z"/>
<path d="M2254 459 c-3 -6 -1 -16 5 -22 8 -8 11 -5 11 11 0 24 -5 28 -16 11z"/>
<path d="M2000 430 c0 -11 2 -20 4 -20 2 0 6 9 9 20 3 11 1 20 -4 20 -5 0 -9
-9 -9 -20z"/>
<path d="M3862 395 c-30 -49 -23 -70 7 -22 12 20 21 42 19 49 -2 6 -14 -6 -26
-27z"/>
<path d="M2028 403 c10 -4 10 -8 1 -19 -6 -7 -9 -19 -7 -26 3 -8 9 -5 17 10
13 24 7 43 -12 41 -8 0 -8 -2 1 -6z"/>
<path d="M2750 359 c0 -5 5 -7 10 -4 6 3 10 8 10 11 0 2 -4 4 -10 4 -5 0 -10
-5 -10 -11z"/>
<path d="M3875 357 c-4 -10 -5 -21 -1 -24 10 -10 18 4 13 24 -4 17 -4 17 -12
0z"/>
<path d="M3820 320 c0 -5 5 -10 10 -10 6 0 10 5 10 10 0 6 -4 10 -10 10 -5 0
-10 -4 -10 -10z"/>
<path d="M2720 243 c1 -5 26 -20 58 -35 31 -15 93 -50 137 -78 122 -77 234
-131 264 -128 21 2 15 7 -34 26 -33 13 -118 58 -190 101 -181 109 -236 136
-235 114z"/>
<path d="M2380 230 c0 -5 5 -10 10 -10 6 0 10 5 10 10 0 6 -4 10 -10 10 -5 0
-10 -4 -10 -10z"/>
<path d="M2686 177 c-48 -85 -48 -85 -43 -60 4 19 3 20 -14 10 -10 -6 -21 -18
-24 -25 -2 -7 0 -10 5 -7 6 3 10 1 10 -5 0 -6 5 -8 11 -5 6 4 1 -11 -10 -34
-12 -22 -21 -43 -21 -46 0 -3 116 -5 258 -5 l257 0 -42 20 c-43 19 -175 97
-225 132 -15 10 -52 30 -82 43 l-55 25 -25 -43z"/>
<path d="M2605 70 c-3 -5 -11 -7 -18 -5 -7 3 -22 -10 -34 -27 -24 -34 -23 -49
2 -28 12 10 15 10 15 0 0 -10 3 -10 15 0 8 7 15 20 15 29 0 9 5 22 12 29 7 7
9 12 6 12 -4 0 -9 -4 -13 -10z"/>
<path d="M534 38 c3 -13 6 -27 6 -31 0 -15 43 -3 47 13 4 12 3 13 -5 1 -5 -7
-15 -10 -21 -6 -9 5 -9 10 -1 20 8 9 6 14 -6 19 -25 9 -27 8 -20 -16z"/>
<path d="M595 40 c3 -5 11 -10 16 -10 6 0 7 5 4 10 -3 6 -11 10 -16 10 -6 0
-7 -4 -4 -10z"/>
<path d="M3651 28 c-1 -16 4 -28 9 -28 12 0 12 8 0 35 -8 18 -9 17 -9 -7z"/>
</g>
</svg>
